<?xml version="1.0" standalone="no"?>
<!DOCTYPE svg PUBLIC "-//W3C//DTD SVG 20010904//EN"
 "http://www.w3.org/TR/2001/REC-SVG-20010904/DTD/svg10.dtd">
<svg version="1.0" xmlns="http://www.w3.org/2000/svg"
 width="292.000000pt" height="292.000000pt" viewBox="0 0 292.000000 292.000000"
 preserveAspectRatio="xMidYMid meet">
<metadata>
Created by potrace 1.11, written by Peter Selinger 2001-2013
</metadata>
<g transform="translate(0.000000,292.000000) scale(0.100000,-0.100000)"
fill="#000000" stroke="none">
<path d="M2350 2460 c-31 -6 -257 -120 -321 -160 -26 -17 -50 -36 -53 -43 -3
-7 -19 -34 -35 -62 l-29 -50 -114 4 c-102 3 -123 0 -198 -24 -97 -31 -95 -30
-175 -39 -98 -12 -127 -17 -154 -29 -14 -5 -28 -11 -31 -11 -3 -1 -37 -22 -76
-48 -39 -25 -81 -51 -93 -57 -34 -19 -86 -16 -117 6 -65 44 -116 55 -279 59
-200 5 -298 -29 -429 -148 -22 -20 -52 -40 -66 -43 -45 -11 -101 -58 -124
-104 -41 -81 -60 -155 -47 -178 6 -11 23 2 73 56 36 39 69 71 73 71 4 0 15 -8
24 -18 9 -9 33 -26 54 -37 42 -22 52 -30 116 -99 24 -26 61 -58 82 -72 22 -14
44 -36 49 -50 10 -26 58 -73 74 -74 6 0 19 -9 31 -20 15 -14 38 -20 82 -23
100 -6 189 -76 288 -227 55 -83 189 -228 268 -289 91 -69 204 -116 322 -135
17 -2 50 -8 75 -12 60 -10 185 -6 235 7 22 6 45 12 50 13 41 8 151 75 202 123
78 74 114 130 146 223 56 166 62 194 73 330 11 140 21 187 45 222 11 14 19 30
19 35 0 10 46 53 56 53 10 0 33 28 27 33 -3 3 18 28 46 56 65 63 86 114 78
190 -4 38 -1 73 9 106 9 28 18 61 20 75 3 14 12 32 20 41 8 8 14 20 14 26 0 5
7 25 17 43 9 18 17 50 19 71 1 21 5 43 9 49 6 11 45 6 105 -11 108 -32 124
-30 90 14 -31 39 -222 130 -322 153 -33 8 -198 11 -228 4z"/>
</g>
</svg>
